<?xml version="1.0" encoding="utf-8"?>
<!-- Generator: Adobe Illustrator 16.0.0, SVG Export Plug-In . SVG Version: 6.00 Build 0)  -->
<!DOCTYPE svg PUBLIC "-//W3C//DTD SVG 1.1//EN" "http://www.w3.org/Graphics/SVG/1.1/DTD/svg11.dtd">
<svg version="1.1" id="Layer_1" xmlns="http://www.w3.org/2000/svg" xmlns:xlink="http://www.w3.org/1999/xlink" x="0px" y="0px"
	 width="800px" height="600px" viewBox="0 0 800 600" enable-background="new 0 0 800 600" xml:space="preserve">
<g>
	<rect x="45.003" y="40.919" fill="#FFFFFF" width="710.25" height="519.75"/>
	<rect x="408.178" y="226.17" fill="#2B7871" width="114.705" height="44.25"/>
	<text transform="matrix(1 0 0 1 330.5024 265.4189)" fill="#FFFFFF" font-family="'MyriadPro-Regular'" font-size="15">GPe</text>
	<rect x="82.503" y="72.419" fill="#2B7871" width="188.25" height="64.5"/>
	<rect x="108.753" y="160.169" fill="#F89F25" width="130.5" height="57.875"/>
	<rect x="108.753" y="242.669" fill="#F89F25" width="59.25" height="58.5"/>
	<rect x="113.253" y="315.42" fill="#F89F25" width="54.75" height="60.749"/>
	<rect x="113.253" y="391.919" fill="#F89F25" width="162.75" height="104.25"/>
	<text transform="matrix(1 0 0 1 133.5024 112.1689)" fill="#FFFFFF" font-family="'MyriadPro-Regular'" font-size="15">Motor Cortex</text>
	<text transform="matrix(1 0 0 1 150.7529 185.5449)" fill="#FFFFFF" font-family="'MyriadPro-Regular'" font-size="15">Striatum</text>
	<text transform="matrix(1 0 0 1 127.2524 277.9199)" fill="#FFFFFF" font-family="'MyriadPro-Regular'" font-size="15">GPe</text>
	<text transform="matrix(1 0 0 1 127.2524 351.9199)" fill="#FFFFFF" font-family="'MyriadPro-Regular'" font-size="15">STN</text>
	<text transform="matrix(1 0 0 1 168.3628 451.1699)" fill="#FFFFFF" font-family="'MyriadPro-Regular'" font-size="15">SNpr/GPi</text>
	<rect x="304.878" y="486.17" fill="#2B1213" width="51.25" height="55.5"/>
	<text transform="matrix(1 0 0 1 318.7524 519.9199)" fill="#FFFFFF" font-family="'MyriadPro-Regular'" font-size="15">PPN</text>
	<rect x="257.378" y="226.17" fill="#2B7871" width="114.704" height="44.25"/>
	<text transform="matrix(1 0 0 1 285.8779 253.543)" fill="#FFFFFF" font-family="'MyriadPro-Regular'" font-size="15">Thalamus</text>
	<g>
		<rect x="137.253" y="218.044" fill="#9A1E20" width="4.5" height="34.25"/>
		<rect x="135.253" y="252.294" fill="#9A1E20" width="8.5" height="1.25"/>
	</g>
	<g>
		<rect x="192.378" y="268.17" fill="#9A1E20" width="4.5" height="129.875"/>
		<rect x="190.378" y="398.045" fill="#9A1E20" width="8.5" height="1.25"/>
	</g>
	<rect x="168.003" y="268.17" fill="#9A1E20" width="26.625" height="4.5"/>
	<g>
		<rect x="164.348" y="343.545" fill="#9A1E20" width="30.28" height="4.499"/>
		<rect x="162.877" y="341.544" fill="#9A1E20" width="1.47" height="8.501"/>
	</g>
	<text transform="matrix(1 0 0 1 135.2529 214.7939)" fill="#FFFFFF" font-family="'MyriadPro-Regular'" font-size="7.5">D2</text>
	<text transform="matrix(1 0 0 1 192.377 214.1699)" fill="#FFFFFF" font-family="'MyriadPro-Regular'" font-size="7.5">D1</text>
	<g opacity="0.2">
		<rect x="243.347" y="193.169" fill="#E55025" width="4.5" height="148.375"/>
		<rect x="135.253" y="206.419" fill="#E55025" width="8.5" height="1.25"/>
		<rect x="137.253" y="193.169" fill="#E55025" width="106.094" height="4.5"/>
		<rect x="203.268" y="207.67" fill="#E55025" width="1.25" height="8.5"/>
		<rect x="203.956" y="209.67" fill="#E55025" width="39.391" height="4.5"/>
		<rect x="137.253" y="193.17" fill="#E55025" width="4.5" height="13.875"/>
	</g>
	<rect x="221.128" y="341.544" fill="#F89F25" width="48.938" height="53.625"/>
	<text transform="matrix(1 0 0 1 229.3359 373.9199)" fill="#FFFFFF" font-family="'MyriadPro-Regular'" font-size="15">SNpc</text>
	<g>
		<rect x="82.503" y="343.294" fill="#204120" width="34.25" height="4.5"/>
		<rect x="116.753" y="341.294" fill="#204120" width="1.25" height="8.5"/>
	</g>
	<rect x="82.503" y="136.919" fill="#204120" width="4.5" height="209.938"/>
	<g>
		<rect x="137.252" y="136.919" fill="#204120" width="4.5" height="34.25"/>
		<rect x="135.253" y="171.169" fill="#204120" width="8.5" height="1.251"/>
	</g>
	<g>
		<rect x="209.627" y="136.294" fill="#204120" width="4.5" height="34.25"/>
		<rect x="207.628" y="170.543" fill="#204120" width="8.5" height="1.25"/>
	</g>
	<g>
		<rect x="148.503" y="301.169" fill="#204120" width="4.5" height="34.25"/>
		<rect x="146.504" y="335.419" fill="#204120" width="8.5" height="1.251"/>
	</g>
	<g>
		<rect x="125.003" y="292.92" fill="#204120" width="4.5" height="34.249"/>
		<rect x="123.003" y="291.668" fill="#204120" width="8.5" height="1.251"/>
	</g>
	<g>
		<rect x="139.502" y="376.169" fill="#204120" width="4.5" height="34.25"/>
		<rect x="137.503" y="410.419" fill="#204120" width="8.5" height="1.251"/>
	</g>
	<g>
		<rect x="211.877" y="238.169" fill="#9A1E20" width="4.5" height="159.589"/>
		<rect x="209.877" y="397.759" fill="#9A1E20" width="8.5" height="1.536"/>
	</g>
	<rect x="196.878" y="238.169" fill="#9A1E20" width="18.75" height="4.5"/>
	<rect x="194.628" y="218.044" fill="#9A1E20" width="4.5" height="24.625"/>
	<g>
		<rect x="296.504" y="112.169" fill="#204120" width="4.499" height="119.126"/>
		<rect x="294.503" y="231.295" fill="#204120" width="8.5" height="1.25"/>
	</g>
	<rect x="270.753" y="112.169" fill="#204120" width="30.25" height="4.5"/>
	<g>
		<rect x="263.753" y="92.169" fill="#204120" width="56.5" height="4.5"/>
		<rect x="262.503" y="90.169" fill="#204120" width="1.25" height="8.5"/>
	</g>
	<rect x="315.753" y="94.48" fill="#204120" width="4.5" height="131.689"/>
	<rect x="82.503" y="381.67" fill="#204120" width="57.625" height="4.5"/>
	<rect x="82.503" y="386.17" fill="#204120" width="4.5" height="127.75"/>
	<g>
		<rect x="82.502" y="513.92" fill="#204120" width="227" height="4.5"/>
		<rect x="308.877" y="511.92" fill="#204120" width="1.25" height="8.499"/>
	</g>
	<rect x="276.003" y="441.794" fill="#9A1E20" width="56.75" height="4.501"/>
	<g>
		<rect x="328.253" y="266.17" fill="#9A1E20" width="4.5" height="227.416"/>
		<rect x="326.253" y="493.586" fill="#9A1E20" width="8.5" height="2.19"/>
	</g>
	<rect x="326.127" y="264.634" fill="#9A1E20" width="8.5" height="1.536"/>
	<text transform="matrix(1 0 0 1 223.3882 352.1689)" fill="#010101" font-family="'MyriadPro-Regular'" font-size="7.5">6-OHDA lesion</text>
	
		<text transform="matrix(1 0 0 1 223.3882 352.1689)" fill="none" stroke="#736759" stroke-miterlimit="10" font-family="'MyriadPro-Regular'" font-size="7.5">6-OHDA lesion</text>
	<rect x="520.904" y="72.295" fill="#2B7871" width="188.25" height="64.5"/>
	<rect x="552.404" y="160.045" fill="#F89F25" width="130.5" height="57.875"/>
	<rect x="623.654" y="242.545" fill="#F89F25" width="59.25" height="58.5"/>
	<rect x="623.654" y="315.295" fill="#F89F25" width="54.75" height="60.75"/>
	<rect x="515.654" y="391.795" fill="#F89F25" width="162.75" height="104.25"/>
	<rect x="435.529" y="486.045" fill="#2B1213" width="51.25" height="55.5"/>
	<g>
		<rect x="649.904" y="217.92" fill="#9A1E20" width="4.5" height="34.25"/>
		<rect x="647.903" y="252.169" fill="#9A1E20" width="8.5" height="1.25"/>
	</g>
	<g>
		<rect x="594.779" y="268.045" fill="#9A1E20" width="4.5" height="129.875"/>
		<rect x="592.778" y="397.92" fill="#9A1E20" width="8.501" height="1.25"/>
	</g>
	<rect x="597.028" y="268.045" fill="#9A1E20" width="26.626" height="4.5"/>
	<g>
		<rect x="597.028" y="343.42" fill="#9A1E20" width="30.28" height="4.5"/>
		<rect x="627.311" y="341.419" fill="#9A1E20" width="1.47" height="8.501"/>
	</g>
	<g>
		<rect x="543.811" y="193.045" fill="#E55025" width="4.5" height="148.375"/>
		<rect x="647.903" y="206.295" fill="#E55025" width="8.5" height="1.25"/>
		<rect x="548.311" y="193.045" fill="#E55025" width="106.095" height="4.5"/>
		<rect x="587.139" y="207.545" fill="#E55025" width="1.25" height="8.5"/>
		<rect x="548.311" y="209.546" fill="#E55025" width="39.392" height="4.5"/>
		<rect x="649.903" y="193.045" fill="#E55025" width="4.5" height="13.875"/>
	</g>
	<rect x="521.592" y="341.419" fill="#F89F25" width="48.938" height="53.625"/>
	<g>
		<rect x="674.904" y="343.17" fill="#204120" width="34.25" height="4.5"/>
		<rect x="673.654" y="341.17" fill="#204120" width="1.25" height="8.5"/>
	</g>
	<rect x="704.654" y="136.795" fill="#204120" width="4.5" height="209.938"/>
	<g>
		<rect x="649.904" y="136.795" fill="#204120" width="4.5" height="34.25"/>
		<rect x="647.904" y="171.045" fill="#204120" width="8.5" height="1.25"/>
	</g>
	<g>
		<rect x="577.529" y="136.169" fill="#204120" width="4.5" height="34.25"/>
		<rect x="575.529" y="170.419" fill="#204120" width="8.5" height="1.251"/>
	</g>
	<g>
		<rect x="638.654" y="301.045" fill="#204120" width="4.5" height="34.25"/>
		<rect x="636.653" y="335.294" fill="#204120" width="8.5" height="1.25"/>
	</g>
	<g>
		<rect x="662.153" y="292.795" fill="#204120" width="4.5" height="34.25"/>
		<rect x="660.153" y="291.544" fill="#204120" width="8.5" height="1.251"/>
	</g>
	<g>
		<rect x="647.654" y="376.045" fill="#204120" width="4.5" height="34.25"/>
		<rect x="645.654" y="410.295" fill="#204120" width="8.5" height="1.25"/>
	</g>
	<g>
		<rect x="575.279" y="238.045" fill="#9A1E20" width="4.5" height="159.589"/>
		<rect x="573.28" y="397.634" fill="#9A1E20" width="8.5" height="1.537"/>
	</g>
	<rect x="576.029" y="238.045" fill="#9A1E20" width="18.75" height="4.5"/>
	<rect x="592.529" y="217.92" fill="#9A1E20" width="4.5" height="24.625"/>
	<g>
		<rect x="490.654" y="112.045" fill="#204120" width="4.499" height="119.126"/>
		<rect x="488.654" y="231.17" fill="#204120" width="8.499" height="1.25"/>
	</g>
	<rect x="490.654" y="112.045" fill="#204120" width="30.25" height="4.5"/>
	<g>
		<rect x="471.404" y="92.044" fill="#204120" width="56.5" height="4.5"/>
		<rect x="527.904" y="90.045" fill="#204120" width="1.25" height="8.5"/>
	</g>
	<rect x="471.404" y="94.355" fill="#204120" width="4.5" height="131.69"/>
	<rect x="651.529" y="381.545" fill="#204120" width="57.625" height="4.5"/>
	<rect x="704.654" y="386.045" fill="#204120" width="4.5" height="127.75"/>
	<g>
		<rect x="482.155" y="513.795" fill="#204120" width="227" height="4.5"/>
		<rect x="481.529" y="511.795" fill="#204120" width="1.251" height="8.5"/>
	</g>
	<rect x="458.904" y="441.67" fill="#9A1E20" width="56.75" height="4.5"/>
	<g>
		<rect x="458.904" y="266.045" fill="#9A1E20" width="4.5" height="227.417"/>
		<rect x="456.904" y="493.462" fill="#9A1E20" width="8.5" height="2.189"/>
	</g>
	<rect x="457.03" y="264.509" fill="#9A1E20" width="8.5" height="1.537"/>
	<text transform="matrix(1 0 0 1 573.2793 112.0449)" fill="#FFFFFF" font-family="'MyriadPro-Regular'" font-size="15">Motor Cortex</text>
	<text transform="matrix(1 0 0 1 435.5283 253.543)" fill="#FFFFFF" font-family="'MyriadPro-Regular'" font-size="15">Thalamus</text>
	<text transform="matrix(1 0 0 1 592.5293 185.5449)" fill="#FFFFFF" font-family="'MyriadPro-Regular'" font-size="15">Striatum</text>
	<text transform="matrix(1 0 0 1 590.4902 214.1699)" fill="#FFFFFF" font-family="'MyriadPro-Regular'" font-size="7.5">D1</text>
	<text transform="matrix(1 0 0 1 647.9023 214.0459)" fill="#FFFFFF" font-family="'MyriadPro-Regular'" font-size="7.5">D2</text>
	<text transform="matrix(1 0 0 1 640.9023 275.6689)" fill="#FFFFFF" font-family="'MyriadPro-Regular'" font-size="15">GPe</text>
	<text transform="matrix(1 0 0 1 640.9023 349.6689)" fill="#FFFFFF" font-family="'MyriadPro-Regular'" font-size="15">STN</text>
	<text transform="matrix(1 0 0 1 532.0508 373.9199)" fill="#FFFFFF" font-family="'MyriadPro-Regular'" font-size="15">SNpc</text>
	<text transform="matrix(1 0 0 1 572.8418 446.2939)" fill="#FFFFFF" font-family="'MyriadPro-Regular'" font-size="15">SNpr/GPi</text>
	<text transform="matrix(1 0 0 1 449.5283 518.4189)" fill="#FFFFFF" font-family="'MyriadPro-Regular'" font-size="15">PPN</text>
	<rect x="0.128" y="0.794" fill="none" stroke="#FFFFFF" stroke-miterlimit="10" width="800" height="600"/>
</g>
</svg>
